
<svg xmlns="http://www.w3.org/2000/svg" width="75" height="75" viewBox="0 0 75 75">
  <g id="Group_8600" data-name="Group 8600" transform="translate(-765 -4041.988)">
    <path id="positive-vote" d="M74.586,32.13a5.458,5.458,0,0,0-3.379-2.29,5.342,5.342,0,0,0-.282-5.5,5.478,5.478,0,0,0-3.377-2.288,5.37,5.37,0,0,0,.52-1.44,5.306,5.306,0,0,0-.8-4.064,5.453,5.453,0,0,0-3.379-2.29,5.343,5.343,0,0,0-.282-5.5,5.554,5.554,0,0,0-7.614-1.523L50.518,10.8a34.545,34.545,0,0,0-9.234-3.077,25.089,25.089,0,0,0-3.524-4.2L35.5,1.368A5.039,5.039,0,0,0,29.318.8a4.834,4.834,0,0,0-1.394,6.755q.089.133.175.267A34.588,34.588,0,0,0,8.92,18.856a33.562,33.562,0,0,0-8.1,26.882A34.114,34.114,0,0,0,21.779,72.43,34.972,34.972,0,0,0,54.966,68.7a33.9,33.9,0,0,0,12.41-16.1,1.161,1.161,0,0,0-.711-1.493,1.189,1.189,0,0,0-1.516.7A31.566,31.566,0,0,1,53.589,66.8a32.588,32.588,0,0,1-28.763,4.261l9.637-6.283h0l8.009-5.222h0a3.161,3.161,0,0,0,1.382-2.018,3.118,3.118,0,0,0-.472-2.39l-.106-.158,1.556-1.015a5.343,5.343,0,0,1,3.76-.8,7.734,7.734,0,0,0,5.443-1.159l12.9-8.414a31.2,31.2,0,0,1-.436,3.275,1.182,1.182,0,0,0,1.166,1.38,1.18,1.18,0,0,0,1.163-.954A33.6,33.6,0,0,0,69.4,42l3.637-2.371a5.37,5.37,0,0,0,2.35-3.433,5.305,5.305,0,0,0-.8-4.064ZM48.218,12.3,44.6,14.659l-.713-1.89a24.756,24.756,0,0,0-1.017-2.318A32.131,32.131,0,0,1,48.218,12.3ZM10.709,20.384a32.214,32.214,0,0,1,18.523-10.4,14.2,14.2,0,0,1,.738,8.726L27.082,31a3.26,3.26,0,0,0-4.134-.474l-8.18,5.333h0l-11.8,7.692c-.065-.819-.1-1.645-.1-2.47a31.3,31.3,0,0,1,7.84-20.693ZM41.536,57.07a.844.844,0,0,1-.37.539h0l-7.035,4.586L21.076,43.024a1.2,1.2,0,0,0-1.644-.319,1.155,1.155,0,0,0-.324,1.618l13.048,19.16L22.115,70.031A31.771,31.771,0,0,1,3.278,46.1L15.09,38.422l1.359,2a1.2,1.2,0,0,0,1.644.319,1.155,1.155,0,0,0,.324-1.618l-1.35-1.983,7.189-4.672a.87.87,0,0,1,1.194.24L41.411,56.433a.83.83,0,0,1,.126.636Zm31.531-21.34a3.055,3.055,0,0,1-1.337,1.953l-4.157,2.711,0,0L52.73,50.07a5.34,5.34,0,0,1-3.76.8,7.738,7.738,0,0,0-5.443,1.159l-1.556,1.015L28.9,33.609l3.379-14.371a16.52,16.52,0,0,0-1.246-11,1.134,1.134,0,0,0-.05-.1A16.431,16.431,0,0,0,29.9,6.27a2.521,2.521,0,0,1,.728-3.522,2.628,2.628,0,0,1,3.222.294L36.111,5.2a22.755,22.755,0,0,1,5.554,8.38L42.9,16.849l.007.017.009.023c.009.02.017.038.026.054a1.146,1.146,0,0,0,.081.144,1.2,1.2,0,0,0,1.641.328L57.295,9.179a3.159,3.159,0,0,1,4.331.866,3.051,3.051,0,0,1-.88,4.264l-1.1.715h0l-2.446,1.6-.009.006c-.014.01-.027.019-.038.028a1.153,1.153,0,0,0-.286,1.582,1.2,1.2,0,0,0,1.642.328l2.448-1.6A3.146,3.146,0,0,1,63.3,16.52a3.1,3.1,0,0,1,1.983,1.317,3.017,3.017,0,0,1,.457,2.311A3.055,3.055,0,0,1,64.408,22.1l-3.544,2.311a1.154,1.154,0,0,0-.334,1.616,1.2,1.2,0,0,0,1.641.328L62.72,26l1.9-1.238a3.159,3.159,0,0,1,4.331.866,3.052,3.052,0,0,1-.88,4.265L66.3,31.046l-.028.018L64.525,32.2a1.155,1.155,0,0,0-.334,1.616,1.2,1.2,0,0,0,1.641.328l.549-.358h0l1.9-1.237a3.141,3.141,0,0,1,2.347-.45,3.105,3.105,0,0,1,1.984,1.316,3.019,3.019,0,0,1,.456,2.311Zm0,0" transform="translate(764.499 4041.987)" fill="#e52525"/>
  </g>
</svg>
