<?xml version="1.0" standalone="no"?>
<!DOCTYPE svg PUBLIC "-//W3C//DTD SVG 20010904//EN"
 "http://www.w3.org/TR/2001/REC-SVG-20010904/DTD/svg10.dtd">
<svg version="1.0" xmlns="http://www.w3.org/2000/svg"
 width="300.000000pt" height="383.000000pt" viewBox="0 0 300.000000 383.000000"
 preserveAspectRatio="xMidYMid meet">
<metadata>
Created by potrace 1.10, written by Peter Selinger 2001-2011
</metadata>
<g transform="translate(0.000000,383.000000) scale(0.100000,-0.100000)"
fill="#000000" stroke="none">
<path d="M1899 3661 c-16 -12 -40 -20 -60 -19 -19 0 -54 -9 -78 -20 -39 -19
-47 -20 -70 -8 -86 45 -160 60 -194 39 -7 -4 -23 -9 -37 -11 -25 -2 -70 -44
-101 -91 -10 -16 -26 -25 -45 -27 -44 -3 -124 -33 -165 -60 -20 -14 -46 -45
-59 -72 -33 -67 -54 -82 -112 -75 -46 6 -49 4 -103 -46 -31 -28 -62 -51 -69
-51 -7 0 -21 -10 -32 -21 -10 -12 -36 -32 -56 -45 -21 -14 -38 -29 -38 -36 0
-13 -57 -84 -117 -147 -24 -24 -44 -54 -44 -67 -2 -38 -19 -82 -48 -123 -15
-22 -22 -53 -33 -149 -1 -7 -18 -28 -39 -45 -20 -18 -44 -50 -53 -72 -9 -22
-25 -49 -35 -60 -9 -11 -26 -40 -36 -65 -11 -25 -41 -69 -67 -99 -57 -65 -79
-140 -67 -230 6 -39 3 -73 -8 -116 -8 -33 -27 -115 -41 -183 l-26 -124 22 -41
c12 -23 22 -56 22 -74 0 -17 4 -34 9 -38 5 -3 10 -24 10 -48 3 -127 12 -260
22 -319 6 -37 8 -76 4 -88 -7 -23 35 -160 63 -201 9 -14 45 -57 79 -94 53 -57
68 -68 104 -72 37 -5 54 -18 133 -97 74 -74 101 -94 146 -110 45 -15 71 -34
140 -105 98 -100 143 -122 208 -99 20 6 41 15 46 20 5 4 23 0 39 -9 21 -11 44
-13 78 -9 33 5 60 2 88 -10 39 -15 42 -15 108 11 37 15 79 36 92 46 13 11 36
18 50 17 120 -8 311 114 375 240 13 25 22 32 34 26 61 -26 97 -13 178 63 54
51 80 91 88 139 10 51 26 79 57 96 16 10 36 33 44 53 9 19 35 55 60 80 25 24
45 48 45 53 0 5 10 14 23 21 13 7 32 27 42 44 10 18 28 43 40 57 25 27 38 50
109 186 l47 91 -10 74 -10 73 53 56 c70 73 80 91 117 196 51 147 42 208 -37
234 -39 13 -46 40 -10 40 13 0 34 8 47 19 13 10 30 16 38 13 9 -3 11 0 7 7 -4
7 -2 19 6 28 11 14 11 16 -4 10 -19 -7 -23 6 -33 111 -4 34 -12 68 -19 75 -26
27 -34 85 -24 168 7 56 6 101 -1 143 -6 35 -11 90 -11 123 0 49 -6 71 -30 114
-17 30 -44 83 -61 119 -17 36 -43 79 -59 95 -15 17 -32 43 -37 59 -6 18 -24
38 -46 50 -20 12 -47 31 -61 44 -15 12 -30 22 -35 22 -4 0 -16 18 -26 41 -11
23 -34 55 -52 73 -39 37 -129 85 -159 86 -13 0 -36 16 -55 37 -47 54 -116 91
-186 99 -39 5 -53 2 -74 -15z m163 -42 c15 -10 34 -19 42 -19 21 0 52 -48 39
-61 -6 -6 -18 -3 -34 10 -19 15 -28 16 -40 7 -9 -6 -14 -17 -11 -25 3 -8 0
-11 -7 -7 -7 5 -8 0 -2 -15 11 -31 27 -35 41 -9 9 16 8 21 -5 26 -19 8 -20 21
0 21 8 0 12 -4 10 -8 -6 -9 32 -19 78 -19 52 0 137 -44 192 -98 44 -43 58 -83
35 -97 -5 -3 -10 -11 -10 -17 0 -6 11 -3 25 6 28 18 50 13 41 -10 -3 -9 4 -16
19 -20 13 -3 29 -12 36 -20 6 -8 20 -14 30 -14 23 0 41 -33 37 -68 -2 -21 1
-27 16 -27 26 0 72 -69 80 -118 4 -21 13 -40 21 -43 8 -3 25 -25 38 -47 19
-34 26 -64 32 -152 11 -135 7 -278 -7 -286 -7 -4 -7 -13 1 -27 6 -11 11 -34
11 -51 0 -20 5 -31 14 -31 23 0 25 -10 32 -118 l6 -102 -27 -12 c-21 -10 -28
-9 -35 2 -10 15 -38 7 -46 -15 -9 -21 29 -80 52 -81 46 -3 61 -15 62 -52 1
-35 -19 -119 -35 -145 -4 -6 -8 -16 -8 -22 -2 -36 -21 -83 -44 -106 -129 -132
-134 -139 -117 -158 19 -21 25 -124 7 -144 -6 -8 -33 -59 -60 -114 -27 -56
-59 -107 -70 -115 -12 -8 -31 -34 -44 -58 -13 -24 -36 -51 -53 -60 -16 -9 -29
-22 -29 -28 0 -33 -75 -82 -75 -49 0 6 -6 3 -12 -8 -7 -11 -11 -33 -9 -48 3
-34 -23 -67 -53 -67 -12 0 -25 -4 -31 -8 -9 -6 -12 -16 -19 -82 -1 -14 -8 -38
-14 -53 -7 -16 -12 -31 -12 -33 0 -9 -28 -34 -38 -34 -6 0 -21 -13 -34 -28
-13 -15 -31 -31 -41 -35 -9 -3 -17 -11 -17 -17 0 -5 -13 -10 -30 -10 -16 0
-30 4 -30 8 0 5 -6 16 -13 26 -13 17 -15 16 -46 -12 -19 -17 -30 -35 -27 -41
9 -14 -42 -81 -60 -81 -8 0 -14 -8 -14 -18 0 -23 -19 -42 -41 -42 -9 0 -29
-12 -45 -27 -16 -16 -33 -28 -39 -28 -19 -1 -110 -28 -119 -36 -5 -4 -19 -1
-32 7 -21 14 -24 14 -36 -5 -7 -12 -17 -21 -22 -21 -5 0 -18 -7 -28 -16 -10
-10 -32 -18 -48 -19 -17 -2 -39 -9 -48 -17 -18 -15 -52 -13 -52 3 0 5 -7 9
-15 9 -8 0 -24 5 -34 12 -15 9 -23 9 -37 -3 -24 -20 -65 -18 -86 3 -22 22 -47
23 -54 3 -4 -8 -14 -15 -23 -15 -9 0 -27 -7 -40 -16 -22 -16 -24 -16 -33 0 -5
9 -17 16 -28 16 -29 0 -50 11 -50 27 0 17 -87 106 -113 116 -9 3 -17 11 -17
17 0 5 -6 10 -14 10 -7 0 -19 6 -25 14 -7 8 -28 17 -47 21 -19 3 -38 13 -41
21 -3 7 -10 14 -15 14 -13 0 -118 110 -118 123 0 23 -45 44 -87 41 -39 -2 -45
0 -59 27 -8 16 -12 35 -7 42 4 7 0 7 -10 -2 -10 -8 -19 -12 -20 -10 -2 2 -14
19 -26 36 -12 18 -29 33 -37 33 -8 0 -14 9 -14 19 0 10 -7 22 -16 25 -10 4
-13 13 -9 26 4 13 1 22 -9 26 -8 3 -12 12 -9 20 3 8 1 22 -3 32 -4 9 -8 51 -9
92 0 41 -5 81 -9 89 -9 14 -11 61 -6 131 2 19 -2 60 -7 90 -6 30 -11 66 -11
80 -3 70 -19 141 -37 153 -18 14 -18 17 0 127 4 23 22 102 46 205 20 85 22
105 10 105 -13 0 -15 70 -2 102 6 13 12 39 16 59 4 27 16 45 48 70 23 19 43
41 45 49 2 8 10 29 17 45 7 17 16 40 20 53 3 12 15 27 26 33 21 11 44 55 40
76 -1 7 12 19 29 28 37 19 63 57 54 79 -4 11 -1 16 10 16 13 0 14 4 7 18 -14
28 1 96 23 100 14 3 17 0 13 -12 -7 -17 8 -22 18 -6 4 6 11 8 16 5 5 -4 9 1 9
9 0 10 -6 13 -16 9 -28 -10 -33 18 -13 65 11 25 17 52 15 59 -6 14 75 103 93
103 6 0 11 4 11 10 0 5 11 26 25 47 51 78 57 85 68 74 14 -14 37 5 37 30 0 18
45 49 71 49 7 0 31 21 54 47 40 45 42 46 75 35 46 -16 70 -15 70 4 0 12 6 15
25 10 25 -6 29 -1 26 36 -5 45 70 118 136 134 15 4 40 13 55 20 15 8 29 10 32
5 7 -10 46 -22 44 -12 -1 3 5 22 14 41 23 53 66 85 130 100 49 11 60 11 80 -2
13 -8 41 -19 63 -26 42 -12 84 -57 48 -50 -26 4 -77 -38 -69 -57 7 -19 40 -20
55 -1 9 11 9 15 -1 18 -8 3 0 13 20 25 18 11 33 24 32 27 -3 13 6 21 41 39 26
13 42 16 55 10 11 -5 33 -6 49 -2 17 3 26 7 21 8 -5 0 -3 8 5 17 17 21 113 11
151 -17z"/>
<path d="M1983 3573 c-19 -7 -16 -20 6 -26 19 -5 36 15 24 27 -7 7 -13 7 -30
-1z"/>
<path d="M2270 3375 c-6 -17 -7 -32 -2 -37 6 -6 12 4 16 23 8 42 0 50 -14 14z"/>
<path d="M2354 3354 c19 -18 19 -22 5 -63 -6 -18 -17 -30 -23 -28 -7 3 -13 -3
-13 -13 -1 -16 2 -17 28 -8 29 10 32 17 31 73 -1 53 -2 55 -23 55 -19 0 -19
-1 -5 -16z"/>
<path d="M1184 3343 c4 -7 2 -23 -4 -35 -11 -22 -10 -22 4 -4 9 11 16 14 16 8
0 -7 7 -12 16 -12 8 0 12 -4 9 -10 -4 -6 1 -7 11 -3 11 4 13 8 6 11 -7 2 -9 9
-6 14 4 7 2 8 -4 4 -6 -3 -21 4 -33 16 -12 13 -19 17 -15 11z"/>
<path d="M2260 3286 c0 -10 9 -16 21 -16 24 0 21 23 -4 28 -10 2 -17 -3 -17
-12z"/>
<path d="M951 3244 c-20 -26 -20 -44 0 -44 6 0 7 9 4 22 -6 16 -4 20 8 15 10
-3 17 1 20 14 7 27 -8 24 -32 -7z"/>
<path d="M1775 3240 c-4 -6 -11 -8 -16 -5 -5 4 -9 1 -9 -6 0 -7 11 -10 30 -7
17 3 30 0 30 -5 0 -6 3 -8 6 -4 3 3 1 14 -5 24 -6 10 -11 12 -11 6 0 -7 -5
-13 -11 -13 -5 0 -7 5 -4 10 3 6 4 10 1 10 -3 0 -8 -5 -11 -10z"/>
<path d="M1117 3223 c-2 -5 -4 -21 -5 -37 -3 -38 -52 -78 -52 -41 0 8 -4 15
-10 15 -9 0 -14 -14 -11 -32 0 -5 -3 -8 -9 -8 -5 0 -10 -5 -10 -10 0 -16 72
18 98 45 13 14 19 25 13 25 -5 0 -8 11 -6 25 2 25 0 32 -8 18z"/>
<path d="M2525 3200 c-3 -6 -10 -8 -15 -5 -5 3 -11 -4 -15 -15 -4 -11 -10 -18
-13 -16 -4 2 -16 -2 -27 -10 -10 -8 -14 -14 -9 -14 6 0 15 5 22 12 7 7 12 8
12 3 0 -4 8 -1 18 8 9 8 28 17 41 19 21 3 22 5 9 16 -11 9 -18 10 -23 2z"/>
<path d="M2230 3151 c-8 -6 -17 -8 -20 -6 -3 1 -13 -8 -23 -21 -10 -13 -14
-24 -9 -24 6 0 12 7 16 15 3 8 13 15 21 15 10 0 13 -5 9 -12 -4 -8 -3 -10 2
-5 5 5 9 12 9 15 0 4 4 13 8 20 10 14 7 15 -13 3z"/>
<path d="M2445 3044 c-16 -19 -32 -36 -34 -39 -2 -3 -1 -5 2 -5 7 0 77 68 77
75 0 12 -18 0 -45 -31z"/>
<path d="M1033 3063 c-18 -6 -16 -33 1 -33 19 0 31 19 20 30 -5 4 -15 5 -21 3z"/>
<path d="M2576 3006 c4 -12 8 -23 10 -25 5 -6 34 20 34 31 0 6 -8 4 -17 -3
-14 -12 -16 -12 -11 2 4 10 1 16 -8 16 -10 0 -12 -7 -8 -21z"/>
<path d="M1959 2873 c-1 -5 -1 -11 0 -15 0 -5 -3 -8 -8 -8 -5 0 -11 -8 -14
-19 -3 -13 0 -17 12 -14 9 2 17 16 18 34 2 25 -5 43 -8 22z"/>
<path d="M2643 2655 c-6 -7 -9 -16 -6 -19 4 -3 7 -16 8 -28 1 -12 7 -24 13
-26 7 -2 10 2 6 11 -3 9 6 26 22 41 31 28 28 44 -4 27 -11 -6 -22 -7 -24 -2
-2 5 -8 3 -15 -4z"/>
<path d="M956 2551 c-17 -19 -15 -41 4 -41 8 0 24 50 17 56 -2 2 -12 -5 -21
-15z"/>
<path d="M1774 2545 c-4 -8 -10 -12 -15 -9 -5 3 -6 -3 -2 -12 6 -16 7 -16 18
0 7 9 20 16 29 16 10 0 14 5 11 10 -9 15 -35 12 -41 -5z"/>
<path d="M1040 2428 c-21 -29 -24 -30 -31 -12 -5 13 -8 15 -8 4 -1 -9 4 -21
10 -27 8 -8 8 -13 0 -17 -13 -9 -15 -26 -2 -26 5 0 12 13 16 29 4 19 11 28 19
25 8 -3 16 5 20 22 10 38 3 38 -24 2z"/>
<path d="M1237 2374 c-7 -8 4 -44 14 -44 5 0 9 2 9 4 0 2 3 11 6 19 5 14 -19
31 -29 21z"/>
<path d="M1010 2327 c0 -10 -7 -14 -22 -10 -15 3 -19 2 -11 -4 9 -7 10 -18 3
-43 -5 -19 -7 -43 -4 -53 7 -21 39 -19 39 3 0 8 8 33 18 54 9 22 15 41 13 44
-3 2 -11 -11 -19 -29 -8 -19 -22 -43 -31 -54 -13 -17 -15 -18 -16 -3 0 9 5 20
10 23 6 3 10 13 10 22 0 9 7 24 16 34 10 11 12 19 5 24 -6 3 -11 0 -11 -8z"/>
<path d="M2703 2276 c-32 -15 -29 -21 11 -21 24 0 31 3 25 11 -5 6 -6 14 -2
17 9 10 -8 6 -34 -7z"/>
<path d="M2610 2220 c0 -5 -8 -10 -17 -10 -12 0 -14 -3 -6 -8 6 -4 16 -19 22
-34 7 -20 19 -29 46 -34 19 -3 35 -11 35 -17 0 -6 3 -7 6 -4 4 4 2 12 -4 19
-6 7 -11 18 -12 23 -3 12 -57 75 -65 75 -3 0 -5 -4 -5 -10z"/>
<path d="M855 2136 c-9 -14 -15 -31 -12 -38 4 -8 6 -6 6 5 1 9 4 16 9 15 4 -1
22 2 40 6 38 9 38 30 -1 34 -19 2 -30 -4 -42 -22z"/>
<path d="M1841 2114 c-11 -13 -10 -17 5 -29 24 -18 31 -18 40 -2 4 6 4 9 -1 5
-12 -11 -35 11 -28 28 7 18 2 17 -16 -2z"/>
<path d="M946 2109 c3 -5 0 -9 -5 -9 -6 0 -11 -5 -11 -12 0 -6 -8 -20 -17 -31
-18 -20 -18 -20 9 -2 15 9 26 21 23 25 -3 5 0 12 6 16 6 3 15 0 20 -7 7 -11 9
-11 9 2 0 9 -9 19 -20 22 -11 3 -18 1 -14 -4z"/>
<path d="M863 2090 c-26 -21 -31 -42 -8 -34 8 4 15 12 15 19 0 7 6 15 13 18 6
2 10 7 7 10 -3 3 -15 -3 -27 -13z"/>
<path d="M2757 1964 c-8 -16 -24 -37 -35 -48 -12 -10 -24 -31 -27 -47 -4 -16
-11 -31 -16 -34 -5 -4 -9 -13 -9 -21 0 -24 18 -7 41 38 14 27 25 38 35 34 11
-4 14 -1 9 12 -3 11 3 29 14 44 12 15 16 29 11 38 -6 9 -12 5 -23 -16z"/>
<path d="M787 1952 c-18 -19 -24 -57 -8 -48 8 6 33 66 27 66 -2 0 -10 -8 -19
-18z"/>
<path d="M336 1914 c-9 -25 -7 -64 4 -64 6 0 10 18 10 40 0 43 -4 50 -14 24z"/>
<path d="M2613 1783 c-24 -5 -30 -27 -14 -52 6 -9 11 -10 15 -2 4 6 4 16 1 21
-3 6 3 10 14 10 12 0 21 7 21 15 0 8 -3 14 -7 14 -5 -1 -18 -4 -30 -6z"/>
<path d="M163 1729 c10 -16 9 -22 -3 -30 -12 -8 -12 -10 4 -7 26 4 31 44 6 51
-16 4 -17 2 -7 -14z"/>
<path d="M2202 1730 c-7 -11 -19 -20 -27 -20 -8 0 -15 -4 -15 -10 0 -17 26
-11 44 9 10 11 16 25 14 31 -1 5 -9 1 -16 -10z"/>
<path d="M392 1707 c-24 -14 -20 -30 5 -20 8 3 19 0 23 -7 5 -8 8 -4 7 13 -2
31 -3 31 -35 14z"/>
<path d="M1214 1705 c3 -9 0 -15 -8 -15 -7 0 -13 -7 -13 -15 0 -11 4 -12 14
-4 7 6 13 8 13 3 0 -4 6 1 14 11 16 22 12 35 -11 35 -9 0 -13 -6 -9 -15z"/>
<path d="M2604 1696 c-4 -10 -18 -16 -39 -16 -31 0 -90 -23 -100 -40 -3 -4 10
-10 28 -13 17 -2 33 -1 35 4 2 4 14 4 28 -1 20 -8 24 -7 24 10 0 11 4 20 10
20 12 0 34 40 26 47 -3 3 -8 -2 -12 -11z"/>
<path d="M2543 1567 c-12 -20 14 -27 31 -8 18 19 17 20 -4 18 -12 -1 -24 -5
-27 -10z"/>
<path d="M887 1557 c3 -5 1 -12 -5 -16 -7 -4 -6 -12 3 -24 12 -16 13 -16 19 8
4 14 14 25 23 25 25 0 6 13 -21 15 -14 0 -22 -3 -19 -8z"/>
<path d="M1367 1524 c-15 -8 -27 -16 -27 -18 0 -6 24 -1 38 8 9 5 18 1 27 -10
13 -18 14 -18 8 4 -7 30 -14 33 -46 16z"/>
<path d="M2533 1507 c2 -6 15 -14 30 -18 23 -6 25 -5 15 10 -11 19 -51 26 -45
8z"/>
<path d="M190 1495 c-7 -8 -10 -22 -6 -30 9 -25 23 -17 23 15 0 35 -1 35 -17
15z"/>
<path d="M2463 1391 c-10 -10 -27 -23 -38 -29 -18 -10 -17 -11 13 -12 18 0 32
5 32 12 0 6 7 20 17 30 21 24 -1 24 -24 -1z"/>
<path d="M2431 1297 c-12 -13 -19 -30 -16 -38 3 -8 -4 -20 -16 -27 -18 -11
-24 -11 -38 2 -11 10 -21 12 -31 6 -12 -8 -10 -10 8 -10 12 0 22 -4 22 -10 0
-18 36 -11 55 10 15 17 48 90 41 90 -2 0 -12 -11 -25 -23z"/>
<path d="M1563 1228 c-6 -7 -16 -24 -23 -37 l-12 -23 31 18 c33 20 51 47 24
37 -11 -4 -14 -2 -9 5 10 16 1 15 -11 0z"/>
<path d="M1158 1203 c-10 -2 -18 -8 -18 -13 0 -4 9 -6 20 -3 16 4 19 2 14 -13
-5 -16 -4 -16 5 -4 12 17 15 41 4 39 -5 -1 -16 -3 -25 -6z"/>
<path d="M2311 1179 l24 -18 -37 -34 c-41 -37 -46 -47 -23 -47 8 0 15 4 15 8
0 5 16 16 35 25 31 15 34 20 25 36 -5 11 -8 26 -5 34 4 10 -3 14 -26 14 l-31
0 23 -18z"/>
<path d="M1678 1088 c-17 -14 -32 -48 -20 -47 4 0 17 13 30 30 24 30 18 39
-10 17z"/>
<path d="M222 1043 c-10 -10 -10 -13 3 -13 9 0 13 -4 10 -10 -7 -11 0 -12 33
-4 12 4 22 10 22 15 0 5 -6 6 -14 3 -7 -3 -20 1 -27 9 -12 12 -17 12 -27 0z"/>
<path d="M2173 1026 c-34 -34 -57 -51 -66 -48 -5 1 -5 -2 -2 -8 5 -8 13 -6 25
5 10 9 24 13 34 9 9 -4 16 -2 14 3 -2 6 8 19 21 30 19 15 21 21 10 25 -8 3
-24 -4 -36 -16z"/>
<path d="M1964 893 c11 -3 25 -11 32 -17 13 -13 77 -9 69 4 -2 4 -15 5 -29 3
-13 -3 -27 0 -30 6 -4 6 -19 10 -34 10 -20 -1 -22 -3 -8 -6z"/>
<path d="M1993 853 c-7 -3 -13 -9 -13 -15 0 -6 7 -8 15 -4 8 3 18 -2 23 -10 8
-14 12 -14 30 -3 12 8 22 20 22 28 0 11 -3 11 -14 2 -10 -8 -21 -9 -33 -3 -10
5 -24 7 -30 5z"/>
<path d="M1869 730 c30 -26 45 -26 29 0 -7 11 -22 20 -33 20 -19 -1 -19 -2 4
-20z"/>
<path d="M1980 731 c0 -5 -15 -12 -32 -16 -26 -6 -29 -9 -13 -12 11 -3 23 -10
27 -16 4 -7 11 -7 21 1 7 7 17 9 20 5 4 -3 7 -1 7 5 0 7 -7 12 -15 12 -9 0
-12 6 -9 15 4 8 3 15 0 15 -3 0 -6 -4 -6 -9z"/>
<path d="M949 699 c-7 -22 -2 -59 8 -63 9 -4 11 3 6 27 -6 30 -11 45 -14 36z"/>
<path d="M1760 634 c-6 -19 -16 -34 -21 -34 -6 0 -7 -4 -4 -10 3 -5 -1 -10 -9
-10 -8 0 -18 5 -21 10 -9 15 -25 12 -19 -3 6 -16 74 -19 68 -3 -7 19 10 34 41
38 38 4 40 29 3 39 -24 6 -28 4 -38 -27z"/>
<path d="M1373 486 c-22 -25 -27 -36 -18 -40 8 -3 19 1 25 9 6 8 18 11 26 8
10 -4 14 3 14 26 0 40 -8 39 -47 -3z"/>
<path d="M1570 499 c0 -4 -10 -10 -22 -12 -13 -3 1 -4 29 -3 58 1 70 11 23 18
-16 3 -30 1 -30 -3z"/>
<path d="M1646 464 c-3 -9 -6 -18 -6 -20 0 -8 35 -3 50 7 12 8 10 9 -9 4 -15
-5 -21 -3 -17 3 3 6 2 13 -3 16 -5 3 -12 -1 -15 -10z"/>
<path d="M1174 415 c5 -14 0 -24 -16 -37 -26 -19 -19 -32 25 -42 26 -6 27 -5
18 13 -6 11 -11 31 -11 45 0 14 -5 28 -12 32 -8 5 -9 2 -4 -11z"/>
<path d="M1337 367 c-21 -33 -6 -60 20 -34 11 11 13 17 5 17 -10 0 -10 5 -2
20 15 28 -4 25 -23 -3z"/>
</g>
</svg>
