
<svg xmlns="http://www.w3.org/2000/svg" width="75" height="75" viewBox="0 0 75 75">
  <g id="Group_8602" data-name="Group 8602" transform="translate(-1699 -4050.5)">
    <g id="social-care" transform="translate(1699 4050.5)">
      <g id="Group_8576" data-name="Group 8576" transform="translate(12.461 68.298)">
        <g id="Group_8575" data-name="Group 8575">
          <path id="Path_25946" data-name="Path 25946" d="M82.025,474.925l-2.448-3.449a1.626,1.626,0,1,0-2.652,1.883l2.448,3.449a1.626,1.626,0,1,0,2.652-1.883Z" transform="translate(-76.624 -470.791)" fill="#e52525"/>
        </g>
      </g>
      <g id="Group_8578" data-name="Group 8578" transform="translate(0 17.177)">
        <g id="Group_8577" data-name="Group 8577">
          <path id="Path_25947" data-name="Path 25947" d="M36.626,212.314l-2.665-12.7a23.95,23.95,0,0,0-10.129-15.036l-5.689-3.825a5.723,5.723,0,0,0-7.254.74V161.9a5.444,5.444,0,0,0-8.851-4.246A5.418,5.418,0,0,0,0,161.9v25.216a15.753,15.753,0,0,0,2.923,9.168l2.9,4.085a1.626,1.626,0,1,0,2.652-1.883l-2.9-4.085a12.518,12.518,0,0,1-2.323-7.285V161.9a2.192,2.192,0,1,1,4.383,0V181.9a11.363,11.363,0,0,0,2.931,7.629c.081.1.164.193.252.286,1.08,1.144,2.35,2.493,3.546,3.764l1.674,1.782.017.016,2.511,2.672a1.626,1.626,0,1,0,2.371-2.227c-.03-.032-1.933-2.059-4.107-4.37L13.1,187.488l-.027-.031a2.744,2.744,0,0,1,.053-3.6,2.459,2.459,0,0,1,3.2-.409l5.689,3.825a20.714,20.714,0,0,1,8.761,13l2.665,12.7a1.626,1.626,0,1,0,3.183-.668Z" transform="translate(-0.001 -156.451)" fill="#e52525"/>
        </g>
      </g>
      <g id="Group_8580" data-name="Group 8580" transform="translate(9.088 63.547)">
        <g id="Group_8579" data-name="Group 8579">
          <path id="Path_25948" data-name="Path 25948" d="M58.845,442.272l-.01-.015a1.626,1.626,0,0,0-2.648,1.889l.01.015a1.626,1.626,0,0,0,2.648-1.889Z" transform="translate(-55.884 -441.575)" fill="#e52525"/>
        </g>
      </g>
      <g id="Group_8582" data-name="Group 8582" transform="translate(38.34 17.177)">
        <g id="Group_8581" data-name="Group 8581">
          <path id="Path_25949" data-name="Path 25949" d="M321.2,157.653a5.444,5.444,0,0,0-8.851,4.246v19.6a5.723,5.723,0,0,0-7.254-.74l-5.689,3.825a23.949,23.949,0,0,0-10.129,15.036l-2.665,12.7a1.626,1.626,0,1,0,3.183.668l2.665-12.7a20.714,20.714,0,0,1,8.761-13l5.689-3.825a2.459,2.459,0,0,1,3.2.409,2.744,2.744,0,0,1,.056,3.593l-.031.034-7.836,8.338a1.626,1.626,0,1,0,2.371,2.227c.022-.023,6.668-7.089,7.748-8.234.088-.093.171-.189.252-.286a11.364,11.364,0,0,0,2.931-7.629V161.9a2.192,2.192,0,1,1,4.383,0v25.216a12.518,12.518,0,0,1-2.323,7.285l-12.287,17.308a1.626,1.626,0,1,0,2.652,1.883l12.287-17.308a15.753,15.753,0,0,0,2.923-9.168V161.9A5.42,5.42,0,0,0,321.2,157.653Z" transform="translate(-286.58 -156.454)" fill="#e52525"/>
        </g>
      </g>
      <g id="Group_8584" data-name="Group 8584" transform="translate(11.052 8.782)">
        <g id="Group_8583" data-name="Group 8583">
          <path id="Path_25950" data-name="Path 25950" d="M140.434,76.388,137.54,75.7v-.519a7.274,7.274,0,0,0,3.114-5.964V65.452a7.273,7.273,0,0,0-12-5.532,9.5,9.5,0,0,0-17.6.013,7.273,7.273,0,0,0-12.016,5.519v3.761a7.274,7.274,0,0,0,3.114,5.964V75.7l-2.893.691a7.619,7.619,0,0,0-5.867,7.434v3.037a1.626,1.626,0,0,0,1.626,1.626h7.473c-.012.2-.02.4-.02.6v5.848a1.626,1.626,0,0,0,1.626,1.626h9.776a1.626,1.626,0,0,0,0-3.253h-1.68V89.941a1.626,1.626,0,1,0-3.253,0V93.3h-3.216V89.081a6.734,6.734,0,0,1,5.18-6.569l4.463-1.069,2.987,6.795a1.626,1.626,0,0,0,1.489.972h0a1.626,1.626,0,0,0,1.489-.972l2.984-6.785,4.449,1.063a6.733,6.733,0,0,1,5.185,6.57V93.3h-3.216V89.941a1.626,1.626,0,1,0-3.253,0V93.3h-1.843a1.626,1.626,0,1,0,0,3.253h9.938a1.626,1.626,0,0,0,1.626-1.626V89.085c0-.2-.008-.4-.02-.6h7.494a1.626,1.626,0,0,0,1.626-1.626V83.822A7.618,7.618,0,0,0,140.434,76.388Zm-7.058-14.962a4.031,4.031,0,0,1,4.017,3.76h-2.261a11.854,11.854,0,0,1-5.453-1.329A4.031,4.031,0,0,1,133.375,61.426Zm-4.026,7.55c0-.079.006-.158.006-.238V67.29a15.107,15.107,0,0,0,5.776,1.149h2.27v.775a4.026,4.026,0,1,1-8.052,0ZM113.609,63.5h0a6.247,6.247,0,0,1,12.415-.993L123.286,60.9a1.626,1.626,0,0,0-2.07.358,7.007,7.007,0,0,1-5.383,2.512h-2.223Zm-7.293-2.073a4.032,4.032,0,0,1,3.7,2.431,11.854,11.854,0,0,1-5.453,1.329H102.3A4.031,4.031,0,0,1,106.316,61.426Zm-4.026,7.013h2.27a15.107,15.107,0,0,0,5.782-1.152v1.926a4.026,4.026,0,0,1-8.052,0Zm7.855,10.91a9.974,9.974,0,0,0-6.911,5.884H96.643V83.822a4.377,4.377,0,0,1,3.37-4.271l4.142-.989A1.626,1.626,0,0,0,105.4,76.98v-.547a7.059,7.059,0,0,0,1.818,0V76.9c0,.024,0,.048,0,.073a1.629,1.629,0,0,0,1.322,1.6l2.426.581Zm4.536-2.525a7.632,7.632,0,0,0-1.3-.439l-2.905-.7v-.507a7.338,7.338,0,0,0,1.41-1.288,9.574,9.574,0,0,0,2.8,2.8Zm7.063,2.39-1.9,4.328L117.934,79.2V78.042a9.532,9.532,0,0,0,3.811.006Zm-1.889-4.229a6.253,6.253,0,0,1-6.247-6.247V67.021h2.223a10.247,10.247,0,0,0,6.91-2.67l3.354,1.97v2.655A6.253,6.253,0,0,1,119.856,74.985ZM125,76.829v-.11a9.571,9.571,0,0,0,2.821-2.811,7.337,7.337,0,0,0,1.4,1.274v.507l-2.905.7A7.659,7.659,0,0,0,125,76.829Zm18.051,8.4h-6.614a9.972,9.972,0,0,0-6.916-5.881l-.817-.195,2.439-.584a1.628,1.628,0,0,0,1.329-1.6c0-.013,0-.026,0-.038v-.5a7.06,7.06,0,0,0,1.818,0v.547a1.626,1.626,0,0,0,1.249,1.582l4.142.989a4.377,4.377,0,0,1,3.371,4.271Z" transform="translate(-93.39 -54)" fill="#e52525"/>
        </g>
      </g>
      <g id="Group_8586" data-name="Group 8586" transform="translate(35.873 43.117)">
        <g id="Group_8585" data-name="Group 8585">
          <path id="Path_25951" data-name="Path 25951" d="M248.776,296.145a1.627,1.627,0,1,0,.477,1.151A1.639,1.639,0,0,0,248.776,296.145Z" transform="translate(-246 -295.67)" fill="#e52525"/>
        </g>
      </g>
      <g id="Group_8588" data-name="Group 8588" transform="translate(35.872)">
        <g id="Group_8587" data-name="Group 8587">
          <path id="Path_25952" data-name="Path 25952" d="M247.619,0a1.626,1.626,0,0,0-1.626,1.626V4.06a1.626,1.626,0,1,0,3.253,0V1.626A1.626,1.626,0,0,0,247.619,0Z" transform="translate(-245.993)" fill="#e52525"/>
        </g>
      </g>
      <g id="Group_8590" data-name="Group 8590" transform="translate(27.87 3.125)">
        <g id="Group_8589" data-name="Group 8589">
          <path id="Path_25953" data-name="Path 25953" d="M196.081,21.393l-1.706-1.7a1.626,1.626,0,1,0-2.3,2.3l1.706,1.7a1.626,1.626,0,1,0,2.3-2.3Z" transform="translate(-191.599 -19.213)" fill="#e52525"/>
        </g>
      </g>
      <g id="Group_8592" data-name="Group 8592" transform="translate(42.148 3.166)">
        <g id="Group_8591" data-name="Group 8591">
          <path id="Path_25954" data-name="Path 25954" d="M294.214,19.945a1.626,1.626,0,0,0-2.3,0l-1.693,1.694a1.626,1.626,0,1,0,2.3,2.3l1.693-1.694A1.626,1.626,0,0,0,294.214,19.945Z" transform="translate(-289.746 -19.469)" fill="#e52525"/>
        </g>
      </g>
    </g>
  </g>
</svg>
