
<svg xmlns="http://www.w3.org/2000/svg" width="75" height="75" viewBox="0 0 75 75">
  <g id="Group_8599" data-name="Group 8599" transform="translate(-302 -4041)">
    <path id="target" d="M86.211,22.435a1.243,1.243,0,0,0-.924-.867l-7.625-1.723L75.939,12.22a1.243,1.243,0,0,0-2.093-.605l-8.77,8.771A35.483,35.483,0,1,0,77.124,32.434L85.9,23.661a1.245,1.245,0,0,0,.314-1.226ZM79.737,50.77A32.993,32.993,0,1,1,63.26,22.2l-4.028,4.028a1.234,1.234,0,0,0-.1.124A27.418,27.418,0,1,0,71.148,38.384a1.227,1.227,0,0,0,.13-.106l4.028-4.028a32.882,32.882,0,0,1,4.431,16.52ZM68.2,38.176A24.858,24.858,0,1,1,59.332,29.3l1.31,5.8-1.257,1.257a19.216,19.216,0,1,0,1.76,1.76L62.4,36.868ZM52.09,50.77a5.37,5.37,0,1,1-2.556-4.554l-3.674,3.674a1.244,1.244,0,1,0,1.76,1.759l3.674-3.674A5.309,5.309,0,0,1,52.09,50.77Zm-.765-6.345a7.87,7.87,0,1,0,1.759,1.76l6.3-6.3a16.716,16.716,0,1,1-1.759-1.76ZM74.676,31.361l-4.67,4.669-.7-.158-.027-.006-6.232-1.4-1.571-6.955L74.012,14.97l1.4,6.19a1.245,1.245,0,0,0,.94.94l6.19,1.4Z" transform="translate(290.739 4029.75)" fill="#e52525"/>
  </g>
</svg>
