
<svg xmlns="http://www.w3.org/2000/svg" width="75" height="75" viewBox="0 0 75 75">
  <g id="Group_8601" data-name="Group 8601" transform="translate(-1225 -4042)">
    <g id="Group_7060" data-name="Group 7060" transform="translate(1233 4050)">
      <path id="Path_22415" data-name="Path 22415" d="M31.5,61A29.5,29.5,0,1,1,61,31.5,29.587,29.587,0,0,1,31.5,61Zm0-56.05A26.55,26.55,0,1,0,58.05,31.5,26.44,26.44,0,0,0,31.5,4.95Z" transform="translate(-2 -2)" fill="#e52525"/>
    </g>
    <g id="Group_7061" data-name="Group 7061" transform="translate(1260.5 4042)">
      <path id="Path_22416" data-name="Path 22416" d="M13.5,20a1.89,1.89,0,0,1-2-2V2a1.89,1.89,0,0,1,2-2,1.89,1.89,0,0,1,2,2V18A1.89,1.89,0,0,1,13.5,20Z" transform="translate(-11.5 0)" fill="#e52525"/>
    </g>
    <g id="Group_7062" data-name="Group 7062" transform="translate(1260.5 4042)">
      <path id="Path_22417" data-name="Path 22417" d="M13.5,20a1.89,1.89,0,0,1-2-2V2a1.89,1.89,0,0,1,2-2,1.89,1.89,0,0,1,2,2V18A1.89,1.89,0,0,1,13.5,20Z" transform="translate(-11.5 0)" fill="#e52525"/>
    </g>
    <g id="Group_7063" data-name="Group 7063" transform="translate(1280 4077.5)">
      <path id="Path_22418" data-name="Path 22418" d="M37,15.5H21a1.89,1.89,0,0,1-2-2,1.89,1.89,0,0,1,2-2H37a1.89,1.89,0,0,1,2,2A1.89,1.89,0,0,1,37,15.5Z" transform="translate(-19 -11.5)" fill="#e52525"/>
    </g>
    <g id="Group_7064" data-name="Group 7064" transform="translate(1260.5 4097)">
      <path id="Path_22419" data-name="Path 22419" d="M13.5,39a1.89,1.89,0,0,1-2-2V21a1.89,1.89,0,0,1,2-2,1.89,1.89,0,0,1,2,2V37A1.89,1.89,0,0,1,13.5,39Z" transform="translate(-11.5 -19)" fill="#e52525"/>
    </g>
    <g id="Group_7065" data-name="Group 7065" transform="translate(1225 4077.5)">
      <path id="Path_22420" data-name="Path 22420" d="M18,15.5H2a1.89,1.89,0,0,1-2-2,1.89,1.89,0,0,1,2-2H18a1.89,1.89,0,0,1,2,2A1.89,1.89,0,0,1,18,15.5Z" transform="translate(0 -11.5)" fill="#e52525"/>
    </g>
    <g id="Group_7066" data-name="Group 7066" transform="translate(1250.5 4067.5)">
      <path id="Path_22421" data-name="Path 22421" d="M21,33A11.786,11.786,0,0,1,9,21,11.786,11.786,0,0,1,21,9,11.786,11.786,0,0,1,33,21,11.786,11.786,0,0,1,21,33Zm0-20a8,8,0,1,0,8,8A8.024,8.024,0,0,0,21,13Z" transform="translate(-9 -9)" fill="#e52525"/>
    </g>
  </g>
</svg>
